<svg width="20" height="20" viewBox="0 0 20 20" fill="none" xmlns="http://www.w3.org/2000/svg">
<path d="M10 4.91671C10.2298 4.91671 10.4574 4.96197 10.6697 5.04992C10.882 5.13786 11.0749 5.26677 11.2374 5.42927C11.3999 5.59177 11.5289 5.78469 11.6168 5.99701C11.7047 6.20933 11.75 6.43689 11.75 6.66671C11.75 6.89652 11.7047 7.12408 11.6168 7.3364C11.5289 7.54872 11.3999 7.74164 11.2374 7.90414C11.0749 8.06665 10.882 8.19555 10.6697 8.2835C10.4574 8.37144 10.2298 8.41671 10 8.41671C9.53588 8.41671 9.09076 8.23233 8.76257 7.90414C8.43438 7.57596 8.25001 7.13084 8.25001 6.66671C8.25001 6.20258 8.43438 5.75746 8.76257 5.42927C9.09076 5.10108 9.53588 4.91671 10 4.91671ZM10 12.4167C12.475 12.4167 15.0833 13.6334 15.0833 14.1667V15.0834H4.91668V14.1667C4.91668 13.6334 7.52501 12.4167 10 12.4167ZM10 3.33337C8.15834 3.33337 6.66668 4.82504 6.66668 6.66671C6.66668 8.50837 8.15834 10 10 10C11.8417 10 13.3333 8.50837 13.3333 6.66671C13.3333 4.82504 11.8417 3.33337 10 3.33337ZM10 10.8334C7.77501 10.8334 3.33334 11.95 3.33334 14.1667V16.6667H16.6667V14.1667C16.6667 11.95 12.225 10.8334 10 10.8334Z" fill="#2563EB"/>
</svg>
